<svg id="Layer_1" data-name="Layer 1" xmlns="http://www.w3.org/2000/svg" xmlns:xlink="http://www.w3.org/1999/xlink" viewBox="0 0 934 637.2"><defs><style>.cls-1,.cls-12,.cls-5,.cls-7{fill:none;}.cls-2{fill:#fff;}.cls-3{fill:#9fc1f9;opacity:0.46;}.cls-4{fill:#4285f4;}.cls-5{stroke:#eff0f2;stroke-miterlimit:10;stroke-width:2px;}.cls-6{fill:#eff0f2;}.cls-7{stroke:#676c72;stroke-width:3px;}.cls-12,.cls-7{stroke-linecap:round;stroke-linejoin:round;}.cls-8{fill:#cdd0d5;}.cls-9{fill:#34a853;}.cls-10{clip-path:url(#clip-path);}.cls-11{fill:#fabb05;}.cls-12{stroke:#fff;stroke-width:10.18px;}.cls-13{fill:#df382b;}</style><clipPath id="clip-path"><path class="cls-1" d="M270,537.1H383.07c20.76-.07,37.57-16.14,37.57-36s-16.81-35.91-37.57-36H270Z"/></clipPath></defs><title>Artboard 6</title><rect class="cls-2" width="934" height="637.2"/><polygon class="cls-3" points="480 226.89 287 310.23 287 500.31 480 500.31 673 500.31 673 310.23 480 226.89"/><path class="cls-4" d="M408.44,182.91a57.19,57.19,0,0,0-40.86-54.81v54.81a16.35,16.35,0,1,1-32.69,0V128.1a57.2,57.2,0,0,0-8.17,106.5v169a24.52,24.52,0,0,0,49,0v-169A57.17,57.17,0,0,0,408.44,182.91Z"/><path class="cls-5" d="M351.24,244.85a8.17,8.17,0,0,0-8.18,8.17V367.44a8.18,8.18,0,1,0,16.35,0V253A8.17,8.17,0,0,0,351.24,244.85Z"/><path class="cls-2" d="M464.46,272.1l.16,62.47a1.25,1.25,0,0,0,2.5,0L467,272.1a1.25,1.25,0,0,0-2.5,0Z"/><path class="cls-2" d="M492.24,279l.23,90.24a1.25,1.25,0,0,0,2.5,0L494.74,279a1.25,1.25,0,0,0-2.5,0Z"/><polygon class="cls-6" points="480 368.03 287 310.23 287 500.31 479.78 500.31 480.22 500.31 673 500.31 673 310.23 480 368.03"/><polyline class="cls-7" points="287.44 310.23 479.94 367.1 672.44 310.23"/><line class="cls-7" x1="517.48" y1="356.1" x2="673" y2="500.31"/><line class="cls-7" x1="287" y1="500.31" x2="442.44" y2="356.17"/><polygon class="cls-8" points="136.35 488.44 171.55 475.76 196.9 490.84 280.27 490.84 280.27 501.12 196.9 501.12 171.55 501.12 146.19 501.12 136.35 501.12 136.35 488.44"/><polygon class="cls-8" points="136.35 513.79 171.55 526.47 196.9 511.4 280.27 511.4 280.27 501.12 196.9 501.12 171.55 501.12 146.19 501.12 136.35 501.12 136.35 513.79"/><path class="cls-9" d="M270,537.1H383.07c20.76-.07,37.57-16.14,37.57-36s-16.81-35.91-37.57-36H270Z"/><g class="cls-10"><path class="cls-6" d="M387.35,483.65a7.17,7.17,0,0,0-7.18-7.17H265.75a7.18,7.18,0,0,0,0,14.35H380.17a7.17,7.17,0,0,0,7.18-7.18h2a9.18,9.18,0,0,1-9.18,9.18H265.75a9.18,9.18,0,0,1,0-18.35H380.17a9.18,9.18,0,0,1,9.18,9.17h-2Z"/><path class="cls-6" d="M388.35,518.52h1a9.18,9.18,0,0,0-9.18-9.17H265.75a9.18,9.18,0,0,0,0,18.35H380.17a9.18,9.18,0,0,0,9.18-9.18h-2a7.17,7.17,0,0,1-7.18,7.18H265.75a7.18,7.18,0,0,1,0-14.35H380.17a7.17,7.17,0,0,1,7.18,7.17Z"/></g><polygon class="cls-11" points="696.22 305.72 682.88 318.3 690.19 335.11 673.04 341.61 673.34 359.94 655.01 359.4 648.3 376.46 631.58 368.94 618.83 382.11 606.25 368.77 589.43 376.08 582.93 358.93 564.6 359.23 565.14 340.9 548.08 334.19 555.61 317.47 542.43 304.71 555.77 292.13 548.46 275.32 565.61 268.82 565.31 250.49 583.64 251.03 590.36 233.97 607.08 241.5 619.83 228.32 632.41 241.66 649.22 234.35 655.72 251.5 674.05 251.2 673.51 269.53 690.57 276.24 683.05 292.96 696.22 305.72"/><line class="cls-12" x1="619.27" y1="316.51" x2="619.58" y2="267.53"/><circle class="cls-2" cx="618.96" cy="340.78" r="7.24"/><polygon class="cls-13" points="528.27 214.96 515.51 222.02 524.46 233.53 509.97 235.14 513.83 249.21 499.81 245.17 498.01 259.64 486.62 250.53 479.4 263.2 472.34 250.44 460.83 259.4 459.22 244.9 445.16 248.76 449.19 234.75 434.72 232.94 443.83 221.55 431.16 214.33 443.92 207.28 434.96 195.77 449.46 194.15 445.6 180.09 459.62 184.13 461.42 169.66 472.81 178.76 480.03 166.09 487.08 178.85 498.6 169.9 500.21 184.39 514.27 180.53 510.23 194.55 524.71 196.35 515.6 207.74 528.27 214.96"/><line class="cls-12" x1="479.68" y1="221.43" x2="479.87" y2="192.02"/><circle class="cls-2" cx="479.49" cy="236" r="4.35"/><polygon class="cls-9" points="608.44 141.25 601.18 148.1 605.16 157.26 595.82 160.8 595.98 170.79 586 170.49 582.34 179.79 573.23 175.69 566.29 182.86 559.44 175.6 550.28 179.58 546.74 170.24 536.75 170.4 537.05 160.42 527.75 156.76 531.85 147.65 524.68 140.71 531.94 133.85 527.96 124.7 537.3 121.16 537.14 111.17 547.12 111.47 550.78 102.17 559.89 106.27 566.83 99.1 573.69 106.36 582.85 102.38 586.38 111.72 596.37 111.56 596.07 121.54 605.37 125.2 601.27 134.31 608.44 141.25"/><path class="cls-2" d="M569.3,147.15l.17-26.68a2.77,2.77,0,1,0-5.54,0l-.18,26.68a2.78,2.78,0,1,0,5.55,0"/><path class="cls-2" d="M570.3,160.38a3.95,3.95,0,1,1-3.91-4A3.94,3.94,0,0,1,570.3,160.38Z"/></svg>