<svg id="Layer_1" data-name="Layer 1" xmlns="http://www.w3.org/2000/svg" viewBox="0 0 951.33 638.34"><defs><style>.cls-1{fill:#fff;}.cls-2{fill:#f1f2f2;}.cls-3{fill:#f1f1f2;}.cls-10,.cls-4{fill:#81c784;}.cls-12,.cls-14,.cls-5,.cls-7,.cls-8,.cls-9{fill:none;}.cls-10,.cls-14,.cls-5,.cls-6{stroke:#fff;}.cls-10,.cls-14,.cls-5,.cls-6,.cls-7,.cls-8,.cls-9{stroke-linecap:round;stroke-linejoin:round;}.cls-10,.cls-5,.cls-6,.cls-7,.cls-8,.cls-9{stroke-width:4px;}.cls-6{fill:#fabb05;}.cls-7,.cls-8,.cls-9{stroke:#df382b;}.cls-7{stroke-dasharray:5 15;}.cls-9{stroke-dasharray:5.03 15.1;}.cls-11{fill:#df382b;}.cls-12{stroke:#c8e6c9;stroke-miterlimit:10;}.cls-13{fill:#4285f4;}.cls-14{stroke-width:2px;}</style></defs><title>Artboard 5</title><rect class="cls-1" width="951.33" height="638.34"/><polygon class="cls-2" points="631.36 515.09 764.13 538.49 764.86 152.91 632.09 129.5 631.36 515.09"/><polygon class="cls-3" points="365.71 511.08 498.49 534.48 499.21 148.9 366.44 125.49 365.71 511.08"/><polygon class="cls-3" points="498.5 534.48 631.35 515.09 632.08 129.5 499.23 148.9 498.5 534.48"/><polygon class="cls-3" points="366.45 125.5 233.59 144.89 232.86 530.47 365.72 511.08 366.45 125.5"/><polygon class="cls-4" points="631.41 486.05 740.01 509.09 740.63 181.58 632.03 158.54 631.41 486.05"/><polygon class="cls-4" points="366.38 154.65 258.57 174.41 257.94 501.78 365.74 482.02 366.38 154.65"/><polygon class="cls-4" points="498.55 505.44 631.41 486.05 632.03 158.54 499.17 177.94 498.55 505.44"/><polygon class="cls-4" points="365.76 482.04 498.54 505.44 499.16 177.94 366.38 154.53 365.76 482.04"/><path class="cls-5" d="M285.94,336.32a109,109,0,0,1,29.75-86.38l50.43-52.46,137.07,83.58,137.35,28.65,68.26-87.55"/><path class="cls-5" d="M702.85,439.08l-61.63-63.27L503.57,449l-50.21-41.3a68.41,68.41,0,0,0-41-15.57l-46.58-1.63L332,394.94"/><line class="cls-5" x1="434.07" y1="314.49" x2="414.57" y2="392.58"/><path class="cls-5" d="M608.26,302.58l-18-31.36c-13.66-23.74-7.51-53.71,14.3-69.71l9.52-7"/><line class="cls-5" x1="432.27" y1="313.51" x2="315.05" y2="253.9"/><line class="cls-6" x1="425.99" y1="348.49" x2="557.99" y2="348.49"/><path class="cls-7" d="M692.11,443.49l-52.75-54.15L501.71,462.49l-50.21-41.3c-8.25-6.19-21.35-13.84-38.37-15.43a70.92,70.92,0,0,0-8.14-.27"/><line class="cls-8" x1="422.99" y1="322.41" x2="422.39" y2="324.83"/><line class="cls-9" x1="418.73" y1="339.48" x2="405.93" y2="390.74"/><line class="cls-8" x1="404.1" y1="398.07" x2="403.5" y2="400.49"/><line class="cls-7" x1="423.22" y1="321.42" x2="305.99" y2="261.81"/><circle class="cls-10" cx="621.49" cy="189.99" r="8.5"/><circle class="cls-10" cx="706.49" cy="223.99" r="8.5"/><circle class="cls-10" cx="286.49" cy="337.99" r="8.5"/><circle class="cls-10" cx="328.49" cy="395.99" r="8.5"/><circle class="cls-10" cx="559.49" cy="348.99" r="8.5"/><polygon class="cls-11" points="707.47 408.65 716.62 423.64 733.27 418.04 730.64 435.4 747 441.81 733.82 453.43 742.23 468.85 724.67 469.28 721.2 486.49 707.47 475.54 693.75 486.49 690.27 469.28 672.72 468.85 681.12 453.43 667.95 441.81 684.3 435.4 681.67 418.04 698.32 423.64 707.47 408.65"/><line class="cls-12" x1="632.08" y1="129.5" x2="632.08" y2="515.09"/><line class="cls-12" x1="366.86" y1="124.49" x2="366.86" y2="510.08"/><line class="cls-12" x1="500.86" y1="148.49" x2="500.86" y2="534.08"/><polygon class="cls-13" points="274.56 233.18 306.32 233.18 306.32 262.49 274.56 233.18"/><rect class="cls-13" x="186.47" y="99.85" width="206.52" height="134.33" rx="2" ry="2"/><rect class="cls-14" x="206.38" y="160.14" width="75.94" height="53.18"/><rect class="cls-14" x="206.28" y="120.7" width="166.9" height="22.27"/><line class="cls-14" x1="296.44" y1="160.49" x2="366.36" y2="160.49"/><line class="cls-14" x1="296.44" y1="176.54" x2="366.36" y2="176.54"/><line class="cls-14" x1="296.94" y1="194.15" x2="366.85" y2="194.15"/><line class="cls-14" x1="296.94" y1="211.76" x2="366.85" y2="211.76"/></svg>