<svg id="Layer_1" data-name="Layer 1" xmlns="http://www.w3.org/2000/svg" viewBox="0 0 951.33 638.34"><defs><style>.cls-1{fill:#fff;}.cls-2{fill:#dfe1e5;}.cls-12,.cls-3,.cls-6,.cls-7,.cls-8{fill:none;stroke-width:2px;}.cls-3{stroke:#eff0f2;}.cls-12,.cls-3{stroke-linecap:round;stroke-linejoin:round;}.cls-4{fill:#eff0f2;}.cls-5{fill:#80adf7;}.cls-6{stroke:#e4594e;}.cls-6,.cls-7,.cls-8{stroke-miterlimit:10;}.cls-7{stroke:#eda606;}.cls-8{stroke:#34a853;}.cls-9{fill:#ea7a72;}.cls-10{fill:#73cb8a;}.cls-11{fill:#fcd35c;}.cls-12{stroke:#676c72;}.cls-13{fill:#cdd0d5;}.cls-14{fill:#4285f4;}.cls-15{fill:#959ca5;}</style></defs><title>Artboard 7</title><rect class="cls-1" width="951.33" height="638.34"/><rect class="cls-2" x="102.25" y="341.59" width="305" height="239.17"/><line class="cls-3" x1="257.36" y1="411.63" x2="257.36" y2="447.17"/><polyline class="cls-3" points="174.6 448.02 174.6 434.12 338.4 434.12 338.4 447.25"/><circle class="cls-3" cx="257.87" cy="400.95" r="18.16"/><rect class="cls-3" x="151.43" y="448.8" width="47.13" height="18.54"/><rect class="cls-3" x="151.43" y="477" width="47.13" height="18.54"/><rect class="cls-3" x="152.28" y="504.35" width="47.13" height="18.54"/><rect class="cls-3" x="233.32" y="448.8" width="47.13" height="18.54"/><rect class="cls-3" x="315.22" y="448.8" width="47.13" height="18.54"/><rect class="cls-3" x="315.22" y="477" width="47.13" height="18.54"/><line class="cls-3" x1="102.7" y1="363" x2="407.25" y2="363"/><circle class="cls-3" cx="117.16" cy="351.58" r="5.33"/><circle class="cls-3" cx="135.44" cy="351.58" r="5.33"/><circle class="cls-3" cx="153.71" cy="351.58" r="5.33"/><rect class="cls-2" x="483.57" y="57.59" width="305.69" height="239.71"/><circle class="cls-3" cx="497.07" cy="68.31" r="5.34"/><circle class="cls-3" cx="515.38" cy="68.31" r="5.34"/><circle class="cls-3" cx="533.69" cy="68.31" r="5.34"/><line class="cls-3" x1="483.33" y1="82.29" x2="788.57" y2="82.29"/><line class="cls-3" x1="670.2" y1="228.04" x2="670.2" y2="243.04"/><circle class="cls-3" cx="727.65" cy="235.54" r="7.5"/><line class="cls-3" x1="740.2" y1="228.04" x2="740.2" y2="243.04"/><line class="cls-3" x1="715.11" y1="228.04" x2="715.11" y2="243.04"/><line class="cls-3" x1="690.02" y1="228.04" x2="690.02" y2="243.04"/><line class="cls-3" x1="680.88" y1="228.04" x2="680.88" y2="243.04"/><circle class="cls-3" cx="702.56" cy="235.54" r="7.5"/><line class="cls-3" x1="750.2" y1="228.04" x2="750.2" y2="243.04"/><line class="cls-3" x1="760.88" y1="228.04" x2="760.88" y2="243.04"/><circle class="cls-3" cx="713.75" cy="210.67" r="7.5"/><circle class="cls-3" cx="693.84" cy="210.67" r="7.5"/><line class="cls-3" x1="681.29" y1="203.17" x2="681.29" y2="218.17"/><circle class="cls-3" cx="668.75" cy="210.67" r="7.5"/><circle class="cls-3" cx="757.65" cy="210.67" r="7.5"/><line class="cls-3" x1="745.11" y1="203.17" x2="745.11" y2="218.17"/><circle class="cls-3" cx="732.56" cy="210.67" r="7.5"/><circle class="cls-3" cx="704.43" cy="160.79" r="7.5"/><circle class="cls-3" cx="684.52" cy="160.79" r="7.5"/><circle class="cls-3" cx="659.43" cy="160.79" r="7.5"/><circle class="cls-3" cx="748.34" cy="160.79" r="7.5"/><line class="cls-3" x1="760.88" y1="153.29" x2="760.88" y2="168.29"/><line class="cls-3" x1="735.79" y1="153.29" x2="735.79" y2="168.29"/><circle class="cls-3" cx="723.25" cy="160.79" r="7.5"/><line class="cls-3" x1="671.75" y1="153.29" x2="671.75" y2="168.29"/><line class="cls-3" x1="720.02" y1="178.34" x2="720.02" y2="193.34"/><line class="cls-3" x1="745.11" y1="178.34" x2="745.11" y2="193.34"/><circle class="cls-3" cx="757.65" cy="185.84" r="7.5"/><circle class="cls-3" cx="732.56" cy="185.84" r="7.5"/><circle class="cls-3" cx="698.47" cy="185.84" r="7.5"/><line class="cls-3" x1="711.02" y1="178.34" x2="711.02" y2="193.34"/><line class="cls-3" x1="685.93" y1="178.34" x2="685.93" y2="193.34"/><line class="cls-3" x1="660.84" y1="178.34" x2="660.84" y2="193.34"/><circle class="cls-3" cx="673.38" cy="185.84" r="7.5"/><circle class="cls-3" cx="678.34" cy="261.67" r="7.5"/><line class="cls-3" x1="690.88" y1="254.17" x2="690.88" y2="269.17"/><line class="cls-3" x1="665.79" y1="254.17" x2="665.79" y2="269.17"/><line class="cls-3" x1="640.7" y1="254.17" x2="640.7" y2="269.17"/><line class="cls-3" x1="631.56" y1="254.17" x2="631.56" y2="269.17"/><circle class="cls-3" cx="653.25" cy="261.67" r="7.5"/><circle class="cls-3" cx="748.34" cy="261.67" r="7.5"/><line class="cls-3" x1="760.88" y1="254.17" x2="760.88" y2="269.17"/><line class="cls-3" x1="735.79" y1="254.17" x2="735.79" y2="269.17"/><line class="cls-3" x1="710.7" y1="254.17" x2="710.7" y2="269.17"/><line class="cls-3" x1="701.56" y1="254.17" x2="701.56" y2="269.17"/><circle class="cls-3" cx="723.25" cy="261.67" r="7.5"/><circle class="cls-3" cx="563.61" cy="136.79" r="7.5"/><line class="cls-3" x1="576.15" y1="129.29" x2="576.15" y2="144.29"/><line class="cls-3" x1="551.06" y1="129.29" x2="551.06" y2="144.29"/><line class="cls-3" x1="525.97" y1="129.29" x2="525.97" y2="144.29"/><line class="cls-3" x1="516.84" y1="129.29" x2="516.84" y2="144.29"/><circle class="cls-3" cx="538.52" cy="136.79" r="7.5"/><circle class="cls-3" cx="633.61" cy="136.79" r="7.5"/><line class="cls-3" x1="646.15" y1="129.29" x2="646.15" y2="144.29"/><line class="cls-3" x1="621.06" y1="129.29" x2="621.06" y2="144.29"/><line class="cls-3" x1="595.97" y1="129.29" x2="595.97" y2="144.29"/><line class="cls-3" x1="586.84" y1="129.29" x2="586.84" y2="144.29"/><circle class="cls-3" cx="608.52" cy="136.79" r="7.5"/><line class="cls-3" x1="516.84" y1="102.29" x2="516.84" y2="117.29"/><line class="cls-3" x1="541.93" y1="102.29" x2="541.93" y2="117.29"/><line class="cls-3" x1="567.02" y1="102.29" x2="567.02" y2="117.29"/><line class="cls-3" x1="576.15" y1="102.29" x2="576.15" y2="117.29"/><circle class="cls-3" cx="554.47" cy="109.79" r="7.5"/><circle class="cls-3" cx="529.38" cy="109.79" r="7.5"/><polygon class="cls-4" points="661.47 155.52 298.42 155.52 298.42 177.43 298.42 225.12 298.42 522.65 661.47 522.65 661.47 155.52"/><polygon class="cls-5" points="661.47 155.52 298.42 155.52 298.42 157.26 298.42 161.04 298.42 184.65 661.47 184.65 661.47 155.52"/><circle class="cls-6" cx="316.79" cy="168.83" r="6.58"/><circle class="cls-7" cx="342.38" cy="168.83" r="6.58"/><circle class="cls-8" cx="366.51" cy="168.83" r="6.58"/><rect class="cls-5" x="323.41" y="209.65" width="91" height="10"/><rect class="cls-2" x="486.41" y="209.65" width="91" height="10"/><rect class="cls-2" x="429.91" y="209.65" width="41" height="10"/><rect class="cls-2" x="399.41" y="234.47" width="91" height="10"/><rect class="cls-9" x="345.41" y="234.47" width="41" height="10"/><rect class="cls-2" x="398.41" y="284.1" width="91" height="10"/><rect class="cls-10" x="344.41" y="284.1" width="41" height="10"/><rect class="cls-11" x="377.06" y="259.29" width="53.34" height="10"/><rect class="cls-5" x="345.41" y="259.29" width="24.03" height="10"/><rect class="cls-2" x="439.41" y="259.29" width="41" height="10"/><rect class="cls-11" x="344.41" y="333.74" width="91" height="10" transform="translate(779.82 677.48) rotate(-180)"/><rect class="cls-2" x="448.41" y="333.74" width="41" height="10" transform="translate(937.82 677.48) rotate(-180)"/><rect class="cls-10" x="344.41" y="383.38" width="91" height="10" transform="translate(779.82 776.75) rotate(-180)"/><rect class="cls-2" x="448.41" y="383.38" width="41" height="10" transform="translate(937.82 776.75) rotate(-180)"/><rect class="cls-2" x="394.41" y="358.56" width="53.34" height="10" transform="translate(842.16 727.12) rotate(-180)"/><rect class="cls-2" x="455.37" y="358.56" width="24.03" height="10" transform="translate(934.78 727.12) rotate(-180)"/><rect class="cls-9" x="344.41" y="358.56" width="41" height="10" transform="translate(729.82 727.12) rotate(-180)"/><rect class="cls-5" x="323.41" y="308.92" width="56.61" height="10"/><rect class="cls-2" x="424.8" y="308.92" width="56.61" height="10"/><rect class="cls-2" x="389.66" y="308.92" width="25.5" height="10"/><rect class="cls-2" x="494.41" y="308.92" width="56.61" height="10"/><rect class="cls-2" x="560.66" y="308.92" width="25.5" height="10"/><rect class="cls-11" x="344.41" y="433.01" width="91" height="10" transform="translate(779.82 876.03) rotate(-180)"/><rect class="cls-2" x="448.41" y="433.01" width="41" height="10" transform="translate(937.82 876.03) rotate(-180)"/><rect class="cls-10" x="344.41" y="482.65" width="91" height="10" transform="translate(779.82 975.3) rotate(-180)"/><rect class="cls-2" x="448.41" y="482.65" width="41" height="10" transform="translate(937.82 975.3) rotate(-180)"/><rect class="cls-5" x="394.41" y="457.83" width="53.34" height="10" transform="translate(842.16 925.66) rotate(-180)"/><rect class="cls-2" x="455.37" y="457.83" width="24.03" height="10" transform="translate(934.78 925.66) rotate(-180)"/><rect class="cls-9" x="344.41" y="457.83" width="41" height="10" transform="translate(729.82 925.66) rotate(-180)"/><rect class="cls-11" x="388.66" y="408.2" width="56.61" height="10"/><rect class="cls-2" x="490.05" y="408.2" width="56.61" height="10"/><rect class="cls-2" x="454.91" y="408.2" width="25.5" height="10"/><rect class="cls-2" x="559.66" y="408.2" width="56.61" height="10"/><rect class="cls-5" x="324.91" y="408.2" width="25.5" height="10"/><rect class="cls-5" x="355.41" y="408.2" width="25.5" height="10"/><line class="cls-12" x1="299.15" y1="185.59" x2="661.25" y2="185.59"/><rect class="cls-13" x="697.97" y="430.73" width="35.86" height="44.82" transform="translate(-77.87 749.42) rotate(-52.8)"/><path class="cls-14" d="M608.37,255.82v21.55h0A95,95,0,0,1,649.84,457.8a95.88,95.88,0,0,1-41.66,9.56,95,95,0,0,1-41.47-180.43,96.09,96.09,0,0,1,41.65-9.56V255.82m0,0a116.55,116.55,0,1,0,70.37,23.72,116.38,116.38,0,0,0-70.37-23.72Z"/><rect class="cls-15" x="757.23" y="430.72" width="44.82" height="143.43" rx="19.06" ry="19.06" transform="translate(-91.93 819.69) rotate(-52.8)"/></svg>