<svg id="Layer_1" data-name="Layer 1" xmlns="http://www.w3.org/2000/svg" viewBox="0 0 951.33 639.1"><defs><style>.cls-1{fill:#fff;}.cls-2{fill:#d2e3fb;}.cls-3{fill:#eff0f2;}.cls-10,.cls-18,.cls-20,.cls-4,.cls-5,.cls-6,.cls-8,.cls-9{fill:none;stroke-width:2px;}.cls-4{stroke:#e4594e;}.cls-20,.cls-4,.cls-5,.cls-6{stroke-miterlimit:10;}.cls-5{stroke:#eda606;}.cls-6{stroke:#34a853;}.cls-7{fill:#f7f7f7;}.cls-8{stroke:#959ca5;}.cls-10,.cls-18,.cls-8,.cls-9{stroke-linecap:round;stroke-linejoin:round;}.cls-9{stroke:#cdd0d5;}.cls-10{stroke:#fff;}.cls-11{fill:#34a853;}.cls-12{fill:#fabb05;}.cls-13{fill:#df382b;}.cls-14{fill:#4285f4;}.cls-15{fill:#cdd0d5;}.cls-16{fill:#9fc1f9;}.cls-17{fill:#959ca5;}.cls-18{stroke:#676c72;}.cls-19{fill:#babfc5;}.cls-20{stroke:#eff0f2;}</style></defs><title>Artboard 4</title><rect class="cls-1" width="951.33" height="639.1"/><rect class="cls-2" x="694.41" y="417.97" width="87.42" height="37.26" transform="translate(1476.25 873.21) rotate(-180)"/><rect class="cls-3" x="422.13" y="60.77" width="396.97" height="355.5" transform="translate(1241.23 477.04) rotate(-180)"/><circle class="cls-4" cx="436.97" cy="73.88" r="5.58"/><circle class="cls-5" cx="458.67" cy="73.88" r="5.58"/><circle class="cls-6" cx="479.13" cy="73.88" r="5.58"/><rect class="cls-7" x="600.48" y="320.33" width="106.83" height="45.19" transform="translate(1307.79 685.85) rotate(-180)"/><path class="cls-7" d="M310.34,320.33c.25,0,.49,0,.74,0v0H670V594.77h-397V357.59A37.26,37.26,0,0,1,310.34,320.33Z"/><rect class="cls-7" x="372.21" y="320.33" width="299.9" height="99.76"/><rect class="cls-7" x="370.15" y="420.09" width="299.9" height="174.68"/><polygon class="cls-7" points="370.15 420.09 370.15 594.77 343.67 594.77 311.08 594.77 273.08 594.77 273.08 420.09 370.15 420.09"/><circle class="cls-3" cx="781.83" cy="417.97" r="37.26"/><path class="cls-2" d="M707.31,320.33a37.26,37.26,0,0,1,37.26,37.26v97.64H670V357.59A37.27,37.27,0,0,1,707.31,320.33Z"/><line class="cls-8" x1="626.41" y1="358.06" x2="305.95" y2="358.06"/><line class="cls-8" x1="626.41" y1="388.34" x2="305.95" y2="388.34"/><line class="cls-8" x1="453.45" y1="467.38" x2="305.95" y2="467.38"/><line class="cls-9" x1="453.45" y1="436.6" x2="305.95" y2="436.6"/><line class="cls-8" x1="453.45" y1="436.6" x2="305.95" y2="436.6"/><line class="cls-8" x1="453.45" y1="497.66" x2="305.95" y2="497.66"/><line class="cls-8" x1="453.45" y1="527.93" x2="305.95" y2="527.93"/><line class="cls-8" x1="453.45" y1="558.21" x2="305.95" y2="558.21"/><polyline class="cls-10" points="573.13 207.83 542.3 173.63 508.1 194.37 461.56 186.52"/><polyline class="cls-10" points="599.5 145.69 599.5 242.66 453.76 242.66"/><circle class="cls-11" cx="573.13" cy="207.83" r="8.02"/><circle class="cls-12" cx="542.3" cy="173.63" r="8.02"/><circle class="cls-13" cx="508.1" cy="194.37" r="8.02"/><circle class="cls-14" cx="461.56" cy="186.52" r="8.02"/><rect class="cls-15" x="178.02" y="384.85" width="36.61" height="45.76" transform="translate(-9.75 810.62) rotate(-127.2)"/><path class="cls-16" d="M306.13,227.82a98.44,98.44,0,0,1,42.72,9.8,96.44,96.44,0,0,1,35,28.73,97.54,97.54,0,0,1-18.71,136.52A96.49,96.49,0,0,1,306.3,422.7a98.44,98.44,0,0,1-42.72-9.8,97.45,97.45,0,0,1,42.55-185.08m0-21.55a119,119,0,1,0,94.86,47,118.47,118.47,0,0,0-94.86-47Z"/><rect class="cls-17" x="108.36" y="384.84" width="45.76" height="146.44" rx="22.88" ry="22.88" transform="translate(-154.28 839.54) rotate(-127.2)"/><rect class="cls-11" x="509.76" y="488.9" width="17.14" height="37.55" transform="translate(1036.66 1015.36) rotate(-180)"/><rect class="cls-14" x="589.28" y="436.37" width="18.32" height="90.2" transform="translate(1196.87 962.94) rotate(-180)"/><rect class="cls-13" x="562.15" y="472.41" width="17.5" height="54.16" transform="translate(1141.81 998.98) rotate(-180)"/><rect class="cls-12" x="536.02" y="507.07" width="17.23" height="19.38" transform="translate(1089.26 1033.52) rotate(-180)"/><line class="cls-18" x1="819.1" y1="88.77" x2="422.1" y2="88.77"/><line class="cls-8" x1="781.6" y1="176.55" x2="634.1" y2="176.55"/><line class="cls-8" x1="781.6" y1="145.77" x2="634.1" y2="145.77"/><line class="cls-8" x1="781.6" y1="206.83" x2="634.1" y2="206.83"/><line class="cls-8" x1="781.6" y1="237.1" x2="634.1" y2="237.1"/><line class="cls-8" x1="781.6" y1="267.38" x2="634.1" y2="267.38"/><path class="cls-19" d="M720.72,223.84a57.19,57.19,0,0,1-3.88-68.25l35.2,42a16.35,16.35,0,1,0,25.06-21l-35.21-42A57.2,57.2,0,0,1,816.56,211L925.1,340.49A24.52,24.52,0,0,1,887.51,372L779,242.47A57.19,57.19,0,0,1,720.72,223.84Z"/><path class="cls-20" d="M804.35,234.57a8.18,8.18,0,0,1,11.52,1l73.49,87.7a8.17,8.17,0,0,1-12.53,10.5l-73.49-87.7A8.18,8.18,0,0,1,804.35,234.57Z"/></svg>